PathFileType	4	(X/Y/Z)	C:/Users/opensim2020/Desktop/walking_exp_matlab/subject06_walking18_straight_03_cyclic.trc	
DataRate	CameraRate	NumFrames	NumMarkers	Units	OrigDataRate	OrigDataStartFrame	OrigNumFrames	
100.00	100.00	4	47	mm	100.00	3435	148	
Frame#	Time	LFHD			RFHD			LBHD			RBHD			C7			T10			CLAV			STRN			RBAK			LSHO			LUPA			LELB			LFRM			LWRA			LWRB			LFIN			RSHO			RUPA			RELB			RFRM			RWRA			RWRB			RFIN			LASI			RASI			LPSI			RPSI			LTHI			LKNE			LTIB			LANK			LHEE			LTOE			RTHI			RKNE			RTIB			RANK			RHEE			RTOE			*39			*40			*41			*42			*43			*44			*45			*46			
		X1	Y1	Z1	X2	Y2	Z2	X3	Y3	Z3	X4	Y4	Z4	X5	Y5	Z5	X6	Y6	Z6	X7	Y7	Z7	X8	Y8	Z8	X9	Y9	Z9	X10	Y10	Z10	X11	Y11	Z11	X12	Y12	Z12	X13	Y13	Z13	X14	Y14	Z14	X15	Y15	Z15	X16	Y16	Z16	X17	Y17	Z17	X18	Y18	Z18	X19	Y19	Z19	X20	Y20	Z20	X21	Y21	Z21	X22	Y22	Z22	X23	Y23	Z23	X24	Y24	Z24	X25	Y25	Z25	X26	Y26	Z26	X27	Y27	Z27	X28	Y28	Z28	X29	Y29	Z29	X30	Y30	Z30	X31	Y31	Z31	X32	Y32	Z32	X33	Y33	Z33	X34	Y34	Z34	X35	Y35	Z35	X36	Y36	Z36	X37	Y37	Z37	X38	Y38	Z38	X39	Y39	Z39	X40	Y40	Z40	X41	Y41	Z41	X42	Y42	Z42	X43	Y43	Z43	X44	Y44	Z44	X45	Y45	Z45	X46	Y46	Z46	X47	Y47	Z47	

75	0.740	1351.26453	21.96697	1668.42688	1482.86169	16.36540	1658.07495	1345.55957	-109.23974	1609.57654	1475.05408	-113.50974	1604.66577	1406.04956	-107.39883	1453.14197	1425.38074	-141.10847	1126.62024	1412.90161	4.14505	1378.49268	1416.96252	46.15618	1203.88538	1492.32434	-179.62486	1287.53870	1248.09753	-46.41939	1404.72083	1180.89233	-65.63199	1202.46655	1173.32800	-80.71918	1090.99426	1155.49341	-67.01826	940.35455	1202.43359	-17.19221	822.69141	1161.37012	-75.66560	821.32568	1165.01099	-40.00784	737.34869	1570.16187	-44.66988	1416.06189	1664.29883	-78.55476	1220.12073	1676.10583	-67.50049	1097.89197	1693.11511	-42.05165	980.49139	1659.66553	29.48764	847.72327	1701.34119	-22.28689	844.42078	1702.55017	21.61783	772.13794	1333.40125	45.95668	967.78455	1552.16016	24.60320	968.94153	1347.38660	-115.77282	996.67578	1514.35107	-122.90570	996.46350	1260.70288	-4.71121	655.02167	1283.41821	12.29044	493.23102	1294.19751	16.89754	236.89850	1336.00085	54.09576	65.82966	1384.02295	19.17694	49.47987	1344.88684	203.89220	48.40792	1605.38501	-52.24508	630.18536	1592.80420	-56.10899	502.59146	1583.17188	-235.95628	306.68036	1539.74841	-361.27933	168.73767	1493.47534	-404.01035	176.04466	1535.48035	-274.75333	40.77729	1405.82751	-82.23599	1703.83862																					 
76	0.750	1349.30310	28.66669	1669.24597	1480.89673	22.81254	1659.09814	1343.36389	-102.38457	1610.16162	1472.93469	-107.00970	1605.46021	1404.09277	-100.39008	1453.83044	1423.44763	-134.23164	1127.41235	1411.28113	11.02994	1379.36108	1415.37634	53.21239	1204.75879	1490.16809	-172.74229	1288.24329	1246.50928	-39.29947	1405.68530	1178.95667	-57.30054	1203.43384	1170.97754	-71.66666	1091.87390	1153.02087	-56.54520	941.41852	1200.08765	-6.01559	824.03503	1158.92346	-64.20780	822.19867	1162.60388	-28.18180	738.52252	1568.32617	-38.14560	1416.98730	1662.92261	-72.21869	1221.36206	1674.71387	-61.75302	1099.07410	1692.03003	-36.92502	981.54840	1658.93823	33.97738	848.30658	1700.70740	-17.99326	845.43622	1701.51782	25.55861	772.54614	1331.75354	53.15281	968.13025	1550.69116	31.00952	970.05316	1345.75525	-109.03429	997.51001	1512.63843	-116.39354	997.18951	1259.87268	-0.68724	655.49481	1282.40613	14.35651	493.33047	1293.76086	17.49472	237.04947	1335.93079	54.01097	65.84146	1383.99670	19.18280	49.51120	1344.88562	203.82086	48.38541	1604.99402	-42.13472	630.88776	1592.95459	-44.13297	503.18002	1583.60181	-225.25455	310.06818	1539.87915	-353.18314	174.67081	1493.49622	-395.48563	183.37379	1534.86523	-272.21109	43.16148	1403.58301	-75.67024	1704.56799																					 
77	0.760	1347.44543	35.15160	1669.89746	1478.90576	29.01189	1659.97449	1341.31909	-95.56476	1610.55261	1470.91016	-100.49333	1606.07080	1402.29224	-93.56394	1454.52673	1421.56531	-127.45726	1127.89563	1409.68323	17.85414	1380.04529	1413.84875	60.01834	1205.39551	1487.92505	-166.05626	1288.66382	1244.85376	-32.14674	1406.41858	1176.71936	-49.11491	1204.17810	1168.52393	-62.59937	1092.53577	1150.57166	-46.23021	942.16724	1197.71228	5.29497	825.30865	1156.40698	-52.90612	822.90509	1160.20496	-15.94665	739.53680	1566.65869	-31.72511	1417.62915	1661.54797	-66.12017	1222.20959	1673.42017	-55.97461	1099.92322	1690.92236	-31.94170	982.27356	1658.33948	38.58843	848.72876	1699.61194	-13.51161	845.80042	1700.47546	29.61449	772.73010	1330.39893	59.49932	968.28784	1549.33130	37.50373	970.95215	1344.12341	-102.75290	998.06879	1511.15601	-110.05117	997.66534	1259.12146	3.24437	655.91791	1281.36523	16.55745	493.48975	1293.22437	18.26431	237.19640	1335.76196	54.01917	65.79449	1383.88525	19.13527	49.53056	1344.84485	203.42639	48.10761	1604.45459	-32.33250	631.42096	1592.99500	-32.40650	503.65247	1583.49817	-214.20161	312.80606	1539.91809	-344.79843	180.59607	1493.52441	-386.83481	190.55141	1535.05457	-268.26599	46.38021	1401.44983	-69.25767	1705.13367																					 
78	0.770	1345.70276	41.71362	1670.48682	1477.10681	35.36477	1660.70422	1339.45776	-88.93996	1610.82153	1468.99390	-93.98929	1606.53333	1400.48181	-86.70016	1455.03455	1419.78076	-120.73606	1128.23242	1408.19519	24.58587	1380.56958	1412.31531	66.62907	1205.84192	1485.66809	-159.48706	1288.88867	1243.24182	-25.00434	1406.92090	1174.56152	-40.87702	1204.66309	1166.08875	-53.43226	1092.89526	1148.13953	-35.73864	942.66913	1195.40979	16.78822	826.38879	1154.06836	-41.27610	823.34332	1157.88367	-3.60230	740.37811	1565.11133	-25.29562	1417.99487	1660.14929	-60.17606	1222.69458	1672.14148	-50.35221	1100.42603	1689.91077	-26.72914	982.71515	1657.68689	43.26215	848.92072	1698.76917	-9.00667	846.05743	1699.53101	33.78372	772.77362	1328.86426	65.88877	968.46014	1548.02319	43.89858	971.58795	1342.86658	-96.53087	998.52563	1509.93628	-103.72415	997.94849	1258.56885	7.03649	656.39508	1280.37549	18.88994	493.65799	1292.49609	19.40098	237.31712	1335.76501	54.02801	65.69027	1383.80750	19.09925	49.52877	1345.06201	203.56084	48.09685	1603.90698	-22.63085	631.77380	1592.83301	-20.65774	504.03806	1583.43933	-203.15900	315.45441	1539.84167	-336.11087	186.19757	1493.44910	-378.11652	197.13094	1535.82068	-262.73050	49.77888	1399.43127	-62.84554	1705.52991																					 
